<svg fill="#FFFFFF" xmlns:dc="http://purl.org/dc/elements/1.1/" xmlns:cc="http://creativecommons.org/ns#" xmlns:rdf="http://www.w3.org/1999/02/22-rdf-syntax-ns#" xmlns:svg="http://www.w3.org/2000/svg" xmlns="http://www.w3.org/2000/svg" xmlns:sodipodi="http://sodipodi.sourceforge.net/DTD/sodipodi-0.dtd" xmlns:inkscape="http://www.inkscape.org/namespaces/inkscape" version="1.1" x="0px" y="0px" viewBox="0 0 100 100"><g transform="translate(0,-952.36205)"><path style="text-indent:0;text-transform:none;direction:ltr;block-progression:tb;baseline-shift:baseline;color:#000000;enable-background:accumulate;" d="m 49.984376,961.53017 c -13.8119,0 -25.0313,11.2517 -25.0313,25.0625 0,2.8744 1.2891,6.2043 3.125,10.15628 1.836,3.95185 4.2743,8.42385 6.875,12.87495 5.2014,8.9021 11.0204,17.8698 13.2813,22.125 a 2.000005,2.000005 0 0 0 3.5312,0 c 2.2666,-4.257 8.0786,-13.2228 13.2813,-22.125 2.6013,-4.4511 5.038803,-8.923 6.875003,-12.87495 1.8361,-3.95198 3.125,-7.28188 3.125,-10.15628 0,-13.8108 -11.241503,-25.0625 -25.062503,-25.0625 z m 0,12.2813 c 6.6907,0 12.0937,5.3735 12.0937,12.0625 0,6.689 -5.403,12.06248 -12.0937,12.06248 -6.6794,0 -12.0625,-5.37348 -12.0625,-12.06248 0,-6.689 5.3831,-12.0625 12.0625,-12.0625 z" fill="#FFFFFF" fill-opacity="1" fill-rule="evenodd" stroke="none" marker="none" visibility="visible" display="inline" overflow="visible"/><path d="m 25.578076,1022.0062 a 2.000005,2.000005 0 0 0 -1.5,0.6562 L 8.5155766,1039.85 a 2.000005,2.000005 0 0 0 1.4688,3.3438 l 39.8436994,0 12,0 0.1875,0 27.968803,0 a 2.000005,2.000005 0 0 0 1.5,-3.3438 l -15.5625,-17.1876 a 2.000005,2.000005 0 0 0 -1.5,-0.6562 l -13.031303,0 a 2.000005,2.000005 0 1 0 0,4 l 12.156303,0 11.9375,13.1876 -23.500003,0 -0.1563,0 -12.0312,0 -35.281299,0 11.937499,-13.1876 12.125,0 a 2.000005,2.000005 0 1 0 0,-4 l -13,0 z" style="text-indent:0;text-transform:none;direction:ltr;block-progression:tb;baseline-shift:baseline;color:#000000;enable-background:accumulate;" fill="#FFFFFF" fill-opacity="1" fill-rule="evenodd" stroke="none" marker="none" visibility="visible" display="inline" overflow="visible"/></g></svg>