<svg fill="#133053" xmlns="http://www.w3.org/2000/svg" xmlns:xlink="http://www.w3.org/1999/xlink" version="1.1" x="0px" y="0px" viewBox="0 0 143.78 186.20625" enable-background="new 0 0 143.78 148.965" xml:space="preserve"><path d="M52.656,3.33l-1.05-2.591L0,21.722l1.049,2.589L52.656,3.33z M143.78,21.204L91.906,0l-1.088,2.573l51.872,21.204  L143.78,21.204z M71.97,88.507c-15.071,0-27.333,12.261-27.333,27.333s12.262,27.334,27.333,27.334  c15.072,0,27.333-12.262,27.333-27.334S87.042,88.507,71.97,88.507z M103.35,95.544c-0.613-3.57-2.348-6.529-0.408-10.612  L73.247,72.482l-2.604,0.001L40.949,84.932c0,0,0,0,0,0.002c1.938,4.081,0.204,7.04-0.408,10.61  c-0.505,2.945,1.072,4.294,1.64,4.677c-2.352,4.578-3.681,9.771-3.681,15.273c0,18.486,14.985,33.471,33.471,33.471  c4.478,0,8.748-0.887,12.652-2.482c12.211-4.99,20.817-16.98,20.817-30.988c0-5.514-1.332-10.714-3.693-15.298  C102.345,99.778,103.844,98.428,103.35,95.544z M71.97,144.252c-15.665,0-28.411-12.746-28.411-28.412S56.305,87.429,71.97,87.429  c15.666,0,28.411,12.745,28.411,28.411S87.636,144.252,71.97,144.252z M60.248,57.991l6.14-2.544  c-0.075-0.514-0.149-1.037-0.225-1.562l-0.193-1.339c-0.075-0.517-0.149-1.04-0.225-1.564L27.737,66.71  c0.318,0.425,0.634,0.848,0.947,1.266l0.81,1.083c0.318,0.426,0.636,0.849,0.946,1.265l29.811-12.328L60.248,57.991z M33.185,26.202  c11.713-4.803,23.53-9.678,25.484-10.586c1.604-0.747,1.498-1.707,0.789-3.261c-0.385-0.844-2.082-5.188-2.498-6.226  c-0.417-1.038-1.665-1.662-3.123-1.246c-0.737,0.209-13.142,5.28-25.51,10.343c-12.064,4.94-24.095,9.875-25.226,10.285  c-2.29,0.83-2.997,2.56-2.462,3.627c0.295,0.587,1.896,4.597,2.937,6.672c1.04,2.075,2.914,1.245,4.579,0.623  C8.155,36.434,20.61,31.358,33.185,26.202z M65.387,29.514l-0.203-1.334c-0.085-0.553-0.164-1.071-0.239-1.558L11.078,48.92  c0.292,0.398,0.602,0.82,0.933,1.27l0.801,1.087c0.301,0.407,0.614,0.832,0.937,1.27l51.873-21.473  C65.54,30.535,65.461,30.016,65.387,29.514z M66.25,35.306l-0.198-1.336c-0.078-0.531-0.157-1.053-0.231-1.561L14.552,53.631  c0.307,0.413,0.619,0.836,0.94,1.268l0.805,1.084c0.309,0.417,0.622,0.839,0.94,1.268l49.242-20.382  C66.402,36.34,66.325,35.82,66.25,35.306z M65.984,41.833l-0.195-1.338c-0.076-0.525-0.153-1.045-0.229-1.561L19.348,58.062  c0.312,0.417,0.626,0.839,0.942,1.265l0.809,1.084c0.313,0.42,0.628,0.843,0.944,1.267l44.17-18.283  C66.137,42.872,66.061,42.351,65.984,41.833z M37.306,36.692l0.005,0.012l24.247-10.092l3.179-1.322  c-0.095-0.599-0.18-1.122-0.251-1.553l-0.24-1.319l-0.488-1.179l-0.097-0.235L35.981,32.521l-0.004-0.012L8.014,44.038l0.097,0.236  L8.6,45.453l0.763,1.102c0.254,0.355,0.564,0.786,0.921,1.276l3.183-1.313L37.306,36.692z M66.995,59.689l-0.192-1.338  c-0.072-0.513-0.147-1.035-0.224-1.564L31.252,71.406c0.321,0.428,0.638,0.851,0.947,1.264l0.812,1.084  c0.325,0.431,0.642,0.852,0.948,1.262l33.26-13.761C67.146,60.747,67.071,60.226,66.995,59.689z M67.821,65.499l-0.189-1.339  c-0.071-0.5-0.146-1.022-0.223-1.565L34.771,76.098c0.332,0.44,0.647,0.861,0.95,1.264l0.813,1.081  c0.345,0.459,0.662,0.88,0.951,1.263l30.557-12.643C67.975,66.585,67.901,66.066,67.821,65.499z M62.823,19.686  c-0.339-0.402-2.121-2.292-2.451-2.545L7.607,38.983c-0.055,0.412,0.022,3.009,0.065,3.531l0.088,0.211l55.149-22.83L62.823,19.686z   M66.828,47.634l-0.193-1.339c-0.075-0.52-0.151-1.041-0.227-1.562L22.851,62.76c0.313,0.422,0.63,0.845,0.944,1.267l0.809,1.084  c0.316,0.422,0.632,0.843,0.946,1.264l41.505-17.178C66.979,48.678,66.904,48.157,66.828,47.634z M60.093,75.287l0.006,0.023  l8.941-3.7c-0.028-0.231-0.7-2.413-0.811-3.206l-6.397,2.648l-0.013-0.024l-23.519,9.758c0.481,0.64,1.55,2.658,1.692,2.841  L60.093,75.287z M77.687,51.908l-0.193,1.338c-0.075,0.527-0.151,1.05-0.224,1.563l6.139,2.542l-0.003,0.006l29.809,12.328  c0.313-0.416,0.629-0.839,0.948-1.265l0.811-1.083c0.312-0.419,0.628-0.84,0.944-1.265L77.911,50.344  C77.837,50.869,77.761,51.392,77.687,51.908z M140.554,24.874c-1.13-0.41-13.161-5.343-25.225-10.284  C102.961,9.527,90.557,4.457,89.818,4.246c-1.456-0.416-2.707,0.208-3.122,1.245c-0.416,1.039-2.113,5.382-2.498,6.227  c-0.708,1.554-0.815,2.514,0.788,3.261c1.954,0.909,13.771,5.783,25.483,10.586c12.576,5.156,25.03,10.232,25.03,10.232  c1.665,0.622,3.539,1.452,4.58-0.622c1.041-2.078,2.642-6.085,2.936-6.673C143.551,27.435,142.845,25.704,140.554,24.874z   M78.474,27.543l-0.203,1.334c-0.076,0.5-0.154,1.021-0.235,1.56l51.873,21.471c0.322-0.437,0.636-0.861,0.936-1.268l0.8-1.087  c0.332-0.45,0.642-0.874,0.935-1.27L78.711,25.984C78.637,26.472,78.557,26.991,78.474,27.543z M77.604,33.333l-0.198,1.336  c-0.076,0.514-0.153,1.033-0.23,1.562l49.243,20.382c0.318-0.429,0.631-0.851,0.939-1.268l0.807-1.084  c0.32-0.432,0.633-0.855,0.938-1.268L77.837,31.772C77.761,32.28,77.683,32.801,77.604,33.333z M77.866,39.858l-0.194,1.338  c-0.076,0.518-0.153,1.04-0.229,1.562l44.17,18.283c0.317-0.425,0.631-0.846,0.942-1.267l0.81-1.084  c0.318-0.426,0.631-0.848,0.943-1.265L78.095,38.297C78.02,38.813,77.943,39.332,77.866,39.858z M107.674,31.883L79.996,20.365  l-0.097,0.235l-0.488,1.179l-0.241,1.319c-0.071,0.431-0.155,0.955-0.249,1.553l3.178,1.322l24.248,10.092l0.004-0.012l23.84,9.826  l3.182,1.313c0.356-0.49,0.667-0.92,0.921-1.275l0.764-1.104l0.488-1.179l0.097-0.234L107.68,31.872L107.674,31.883z M76.853,57.713  l-0.192,1.339c-0.075,0.535-0.149,1.057-0.223,1.563l33.259,13.763c0.308-0.41,0.624-0.832,0.949-1.264l0.813-1.083  c0.309-0.413,0.625-0.836,0.945-1.264L77.076,56.151C77.001,56.679,76.925,57.202,76.853,57.713z M76.025,63.521l-0.19,1.341  c-0.082,0.566-0.153,1.087-0.22,1.564l30.556,12.643c0.29-0.384,0.606-0.804,0.952-1.263l0.813-1.081  c0.301-0.402,0.619-0.824,0.95-1.264l-32.64-13.505C76.171,62.5,76.095,63.021,76.025,63.521z M83.283,16.504  c-0.329,0.253-2.111,2.143-2.45,2.544l-0.087,0.209l55.149,22.83l0.088-0.21c0.043-0.523,0.12-3.12,0.065-3.531L83.283,16.504z   M77.021,45.658l-0.194,1.34c-0.076,0.521-0.151,1.044-0.226,1.562l41.506,17.178c0.313-0.42,0.629-0.842,0.945-1.264l0.809-1.084  c0.315-0.421,0.629-0.845,0.944-1.267L77.249,44.096C77.173,44.617,77.097,45.138,77.021,45.658z M83.564,74.65l20.099,8.339  c0.143-0.183,1.21-2.2,1.692-2.84l-23.52-9.758l-0.012,0.023l-6.397-2.647c-0.111,0.793-0.783,2.974-0.811,3.206l8.94,3.7  L83.564,74.65z"/></svg>