<svg fill="#133053" xmlns="http://www.w3.org/2000/svg" xmlns:xlink="http://www.w3.org/1999/xlink" version="1.1" x="0px" y="0px" viewBox="0 0 110 90" style="enable-background:new 0 0 100 100;" xml:space="preserve"><path d="M80.4,62.7c-0.2-2.2-5.7-1.4-6.7-1.1c-0.4,0.1-0.9,0.8-1.3,1.5c-1-3.4-3-10.4-4.2-11.4c-1.6-1.3-9.3-3.2-17.1-3.2  S35.5,50.4,34,51.7c-1.2,1-3.3,8-4.2,11.4c-0.4-0.7-0.9-1.3-1.3-1.5c-1-0.3-6.5-1.1-6.7,1.1c-0.1,1.4,3.2,2.4,5.5,2.9  c-1.2,1-2.3,2.4-2.6,4.2c-0.8,4.4,0.3,14.7,0.6,15.8c0,0.1,0.1,0.2,0.3,0.3V89c0,1.2,1,2.2,2.2,2.2h5.9c1.2,0,2.2-1,2.2-2.2v-1.4  c4.7-0.3,8.5-0.5,15.3-0.6c6.8,0.1,10.6,0.3,15.3,0.6V89c0,1.2,1,2.2,2.2,2.2h5.9c1.2,0,2.2-1,2.2-2.2v-3.1c0.2-0.1,0.3-0.2,0.3-0.3  c0.3-1.1,1.4-11.4,0.6-15.8c-0.3-1.9-1.4-3.3-2.6-4.2C77.3,65.1,80.5,64.1,80.4,62.7z M36.9,77c-1.9,0-8.7-1.9-8.4-4.8  c0.3-2.9,5.6-2.2,7.8-0.6C38.4,73.3,38.8,77,36.9,77z M32.7,63.1c0,0,2-8.8,3.4-9.8c1.4-0.9,8-2.3,14.9-2.3s13.5,1.4,14.9,2.3  c1.4,0.9,3.4,9.8,3.4,9.8s-4.6-0.8-18.3-0.8S32.7,63.1,32.7,63.1z M65.2,77c-1.9,0-1.6-3.8,0.6-5.3c2.2-1.6,7.5-2.3,7.8,0.6  C74,75.1,67.2,77,65.2,77z"/><path d="M51.1,46.2c0.9,0,1.7,0,2.5,0.1v-7.4c-0.5,0.3-0.9,0.5-1.4,0.8L51,40.5l-1.2-0.8c-0.4-0.3-0.9-0.6-1.4-0.9v7.4  C49.3,46.2,50.2,46.2,51.1,46.2z"/><path d="M54.3,10.4c-1.3-2.6-2.5-5.6-3.2-5.6s-1.9,2.9-3.2,5.6c-17.2,1.4-31.1,13.9-33.5,26.5c2.3-1.2,4.9-1.9,7.6-1.9  c3.6,0,6.9,1.2,9.7,3.1c2.7-1.9,6.1-3.1,9.7-3.1c2.5,0,4.9,0.6,7.1,1.6c0.4,0.2,0.9,0.4,1.3,0.7h0.1c0.4,0.2,0.8,0.5,1.2,0.8  c0.4-0.3,0.8-0.5,1.2-0.8c0,0,0,0,0.1,0c0.4-0.2,0.8-0.5,1.3-0.7l0,0c2.2-1,4.6-1.6,7.1-1.6c3.6,0,6.9,1.2,9.7,3.1  c2.7-1.9,6.1-3.1,9.7-3.1c2.7,0,5.3,0.7,7.6,1.9C85.3,24.3,71.5,11.8,54.3,10.4z"/></svg>