<svg fill="#133053" xmlns="http://www.w3.org/2000/svg" xmlns:xlink="http://www.w3.org/1999/xlink" version="1.1" x="0px" y="0px" viewBox="0 0 60 75" style="enable-background:new 0 0 60 60;" xml:space="preserve"><g><path d="M19.498,60H4.502C2.02,60,0,57.98,0,55.498V4.502C0,2.02,2.02,0,4.502,0h14.996C21.98,0,24,2.02,24,4.502v50.996   C24,57.98,21.98,60,19.498,60z M4.502,2C3.123,2,2,3.122,2,4.502v50.996C2,56.878,3.123,58,4.502,58h14.996   C20.877,58,22,56.878,22,55.498V4.502C22,3.122,20.877,2,19.498,2H4.502z"/><path d="M7,24c-0.552,0-1-0.447-1-1V7c0-0.553,0.448-1,1-1s1,0.447,1,1v16C8,23.553,7.552,24,7,24z"/><path d="M12,17c-0.552,0-1-0.447-1-1V7c0-0.553,0.448-1,1-1s1,0.447,1,1v9C13,16.553,12.552,17,12,17z"/><path d="M17,11c-0.552,0-1-0.447-1-1V1c0-0.553,0.448-1,1-1s1,0.447,1,1v9C18,10.553,17.552,11,17,11z"/><path d="M7,45c-0.552,0-1-0.447-1-1V28c0-0.553,0.448-1,1-1s1,0.447,1,1v16C8,44.553,7.552,45,7,45z"/><path d="M7,60c-0.552,0-1-0.447-1-1V49c0-0.553,0.448-1,1-1s1,0.447,1,1v10C8,59.553,7.552,60,7,60z"/><path d="M12,38c-0.552,0-1-0.447-1-1V22c0-0.553,0.448-1,1-1s1,0.447,1,1v15C13,37.553,12.552,38,12,38z"/><path d="M12,56c-0.552,0-1-0.447-1-1V42c0-0.553,0.448-1,1-1s1,0.447,1,1v13C13,55.553,12.552,56,12,56z"/><path d="M17,31c-0.552,0-1-0.447-1-1V15c0-0.553,0.448-1,1-1s1,0.447,1,1v15C18,30.553,17.552,31,17,31z"/><path d="M17,54c-0.552,0-1-0.447-1-1V36c0-0.553,0.448-1,1-1s1,0.447,1,1v17C18,53.553,17.552,54,17,54z"/><path d="M3,7H1C0.448,7,0,6.553,0,6s0.448-1,1-1h2c0.552,0,1,0.447,1,1S3.552,7,3,7z"/><path d="M3,15H1c-0.552,0-1-0.447-1-1s0.448-1,1-1h2c0.552,0,1,0.447,1,1S3.552,15,3,15z"/><path d="M3,23H1c-0.552,0-1-0.447-1-1s0.448-1,1-1h2c0.552,0,1,0.447,1,1S3.552,23,3,23z"/><path d="M3,31H1c-0.552,0-1-0.447-1-1s0.448-1,1-1h2c0.552,0,1,0.447,1,1S3.552,31,3,31z"/><path d="M3,39H1c-0.552,0-1-0.447-1-1s0.448-1,1-1h2c0.552,0,1,0.447,1,1S3.552,39,3,39z"/><path d="M3,47H1c-0.552,0-1-0.447-1-1s0.448-1,1-1h2c0.552,0,1,0.447,1,1S3.552,47,3,47z"/><path d="M3,55H1c-0.552,0-1-0.447-1-1s0.448-1,1-1h2c0.552,0,1,0.447,1,1S3.552,55,3,55z"/><path d="M23,7h-2c-0.552,0-1-0.447-1-1s0.448-1,1-1h2c0.552,0,1,0.447,1,1S23.552,7,23,7z"/><path d="M23,15h-2c-0.552,0-1-0.447-1-1s0.448-1,1-1h2c0.552,0,1,0.447,1,1S23.552,15,23,15z"/><path d="M23,23h-2c-0.552,0-1-0.447-1-1s0.448-1,1-1h2c0.552,0,1,0.447,1,1S23.552,23,23,23z"/><path d="M23,31h-2c-0.552,0-1-0.447-1-1s0.448-1,1-1h2c0.552,0,1,0.447,1,1S23.552,31,23,31z"/><path d="M23,39h-2c-0.552,0-1-0.447-1-1s0.448-1,1-1h2c0.552,0,1,0.447,1,1S23.552,39,23,39z"/><path d="M23,47h-2c-0.552,0-1-0.447-1-1s0.448-1,1-1h2c0.552,0,1,0.447,1,1S23.552,47,23,47z"/><path d="M23,55h-2c-0.552,0-1-0.447-1-1s0.448-1,1-1h2c0.552,0,1,0.447,1,1S23.552,55,23,55z"/><path d="M31,40h-8c-0.552,0-1-0.447-1-1V21c0-0.553,0.448-1,1-1h8c0.552,0,1,0.447,1,1v18C32,39.553,31.552,40,31,40z M24,38h6V22   h-6V38z"/><path d="M41,34H31c-0.552,0-1-0.447-1-1v-6c0-0.553,0.448-1,1-1h10c0.552,0,1,0.447,1,1v6C42,33.553,41.552,34,41,34z M32,32h8v-4   h-8V32z"/><path d="M55,11H45c-1.654,0-3-1.346-3-3s1.346-3,3-3h10c1.654,0,3,1.346,3,3S56.654,11,55,11z M45,7c-0.552,0-1,0.448-1,1   s0.448,1,1,1h10c0.552,0,1-0.448,1-1s-0.448-1-1-1H45z"/><path d="M56.498,39H43.502C41.571,39,40,37.429,40,35.498v-9.996C40,23.571,41.571,22,43.502,22h12.996   C58.429,22,60,23.571,60,25.502v9.996C60,37.429,58.429,39,56.498,39z M43.502,24C42.674,24,42,24.674,42,25.502v9.996   C42,36.326,42.674,37,43.502,37h12.996C57.326,37,58,36.326,58,35.498v-9.996C58,24.674,57.326,24,56.498,24H43.502z"/><path d="M55,19H45c-1.654,0-3-1.346-3-3s1.346-3,3-3h10c1.654,0,3,1.346,3,3S56.654,19,55,19z M45,15c-0.552,0-1,0.448-1,1   s0.448,1,1,1h10c0.552,0,1-0.448,1-1s-0.448-1-1-1H45z"/><g><path d="M52,15h-4c-0.552,0-1-0.447-1-1v-4c0-0.553,0.448-1,1-1h4c0.552,0,1,0.447,1,1v4C53,14.553,52.552,15,52,15z M49,13h2v-2    h-2V13z"/><path d="M52,7h-4c-0.552,0-1-0.447-1-1V1c0-0.553,0.448-1,1-1h4c0.552,0,1,0.447,1,1v5C53,6.553,52.552,7,52,7z M49,5h2V2h-2V5z"/><path d="M52,24h-4c-0.552,0-1-0.447-1-1v-5c0-0.553,0.448-1,1-1h4c0.552,0,1,0.447,1,1v5C53,23.553,52.552,24,52,24z M49,22h2v-3    h-2V22z"/></g><path d="M47,31c-0.256,0-0.512-0.098-0.707-0.293c-0.391-0.391-0.391-1.023,0-1.414l3-3c0.39-0.391,1.024-0.391,1.414,0   c0.391,0.391,0.391,1.023,0,1.414l-3,3C47.512,30.902,47.256,31,47,31z"/><path d="M49,35c-0.256,0-0.512-0.098-0.707-0.293c-0.391-0.391-0.391-1.023,0-1.414l5-5c0.39-0.391,1.024-0.391,1.414,0   c0.391,0.391,0.391,1.023,0,1.414l-5,5C49.512,34.902,49.256,35,49,35z"/></g></svg>