<svg fill="#133053" xmlns="http://www.w3.org/2000/svg" xmlns:xlink="http://www.w3.org/1999/xlink" viewBox="0 0 60 60" version="1.1" x="0px" y="0px">
  <g stroke="none" stroke-width="1" fill="none" fill-rule="evenodd" stroke-linecap="round" stroke-linejoin="round">
    <g transform="translate(-480.000000, -583.000000)" stroke="#133053" stroke-width="2">
      <g transform="translate(481.000000, 584.000000)">
        <path d="M58,29 C58,45.016 45.016,58 29,58 C12.984,58 0,45.016 0,29 C0,12.984 12.984,0 29,0 C45.016,0 58,12.984 58,29 Z"/>
        <path d="M29,52 C16.318,52 6,41.682 6,29 C6,16.318 16.318,6 29,6 C41.682,6 52,16.318 52,29 C52,41.682 41.682,52 29,52 Z"/>
        <path d="M29,48 C18.523,48 10,39.477 10,29 C10,18.523 18.523,10 29,10 C39.477,10 48,18.523 48,29 C48,39.477 39.477,48 29,48 Z"/>
        <path d="M27.9136,32.856 C30.9536,33.663 33.6626,30.953 32.8556,27.914 C32.5016,26.578 31.4216,25.499 30.0866,25.144 C27.0466,24.337 24.3376,27.047 25.1436,30.086 C25.4986,31.422 26.5786,32.502 27.9136,32.856 Z"/>
        <path d="M25,18.6685 C25,20.9695 22.729,22.5845 20.556,21.8285 L12.796,19.1285 C11.417,21.3835 10.492,23.9395 10.156,26.6805 L16.02,28.7195 C19,29.7565 20.017,33.4585 17.984,35.8715 L13.994,40.6105 C15.64,42.7335 17.714,44.5045 20.102,45.7765 L25.127,39.8085 C27.15,37.4065 30.85,37.4065 32.873,39.8085 L37.898,45.7765 C40.286,44.5045 42.36,42.7335 44.006,40.6105 L40.058,35.9215 C38.005,33.4835 39.032,29.7455 42.042,28.6985 L47.844,26.6805 C47.508,23.9395 46.583,21.3835 45.204,19.1285 L37.444,21.8285 C35.271,22.5845 33,20.9695 33,18.6685 L33,10.4325 C31.709,10.1545 30.373,10.0005 29,10.0005 C27.627,10.0005 26.291,10.1545 25,10.4325 L25,18.6685 Z"/>
      </g>
    </g>
  </g>
</svg>