<svg fill="#133053" xmlns="http://www.w3.org/2000/svg" data-name="Layer 1" viewBox="0 0 100 100" x="0px" y="0px"><title>Artboard 10</title><path d="M96.38,30c0-1.34,0-2.42,0-3.41a6.62,6.62,0,0,0-6.44-6.46l-1.8,0a8.89,8.89,0,0,0-4.27,1.19c-1.61-3.87-4.14-9.62-6-12.25C74.38,4,69.36,2.65,65.89,2A91.35,91.35,0,0,0,50,1,91.35,91.35,0,0,0,34.11,2c-3.47.61-8.49,2-12,7.05-1.83,2.62-4.36,8.38-6,12.25a8.94,8.94,0,0,0-4.3-1.19l-1.77,0a6.62,6.62,0,0,0-6.44,6.45c0,1,0,2.07,0,3.41A6.75,6.75,0,0,0,9,36.52,21.6,21.6,0,0,0,6.68,46.83V69a6.64,6.64,0,0,0,6.63,6.63h6A6.64,6.64,0,0,0,25.92,69V67.5H74.08V69a6.64,6.64,0,0,0,6.63,6.63h6A6.64,6.64,0,0,0,93.33,69V46.86A21.67,21.67,0,0,0,91,36.52,6.75,6.75,0,0,0,96.38,30Zm-4-.09a2.76,2.76,0,0,1-2.71,2.71H87.46a2,2,0,0,0-1.61,3.2c.21.28.42.57.61.86a17.4,17.4,0,0,1,2.86,10.1V69a2.63,2.63,0,0,1-2.63,2.63h-6A2.63,2.63,0,0,1,78.08,69V65.5a2,2,0,0,0-2-2H23.92a2,2,0,0,0-2,2V69a2.63,2.63,0,0,1-2.63,2.63h-6A2.63,2.63,0,0,1,10.67,69V46.79a17.37,17.37,0,0,1,2.86-10.06c.2-.29.4-.58.61-.86a2,2,0,0,0-1.6-3.2H10.33a2.76,2.76,0,0,1-2.71-2.71c0-1.26,0-2.27,0-3.17a2.6,2.6,0,0,1,2.58-2.6l1.62,0a5.75,5.75,0,0,1,3.83,1.77,2,2,0,0,0,3.22-.71C21.5,18.67,24,13.37,25.38,11.38,28,7.59,31.8,6.5,34.8,6A87.92,87.92,0,0,1,50,5,87.92,87.92,0,0,1,65.2,6c3,.52,6.78,1.61,9.42,5.4,1.39,2,3.88,7.29,6.51,13.83a2,2,0,0,0,3.22.71,5.74,5.74,0,0,1,3.8-1.77l1.65,0h0a2.6,2.6,0,0,1,2.57,2.6C92.42,27.68,92.42,28.69,92.39,29.95Zm-16.52,7.8a5.64,5.64,0,0,0-1.43.19L66,40.16a5.6,5.6,0,0,0,1.42,11h8.48a5.61,5.61,0,0,0,5.6-5.6V43.35A5.61,5.61,0,0,0,75.87,37.75Zm1.59,7.83a1.6,1.6,0,0,1-1.6,1.6H67.38A1.6,1.6,0,0,1,67,44l8.48-2.22a1.64,1.64,0,0,1,.41-.05,1.6,1.6,0,0,1,1.59,1.6ZM34,40.16l-8.48-2.22a5.59,5.59,0,0,0-7,5.42v2.22a5.61,5.61,0,0,0,5.6,5.6h8.48a5.6,5.6,0,0,0,1.42-11Zm-1.42,7H24.14a1.6,1.6,0,0,1-1.6-1.6V43.35a1.59,1.59,0,0,1,2-1.55L33,44a1.6,1.6,0,0,1-.41,3.15ZM45,99H55a2,2,0,0,0,2-2V78.18H67.67a2,2,0,0,0,0-4H32.33a2,2,0,1,0,0,4H43V97A2,2,0,0,0,45,99Zm2-20.82H53V95H47Z"/></svg>