<svg fill="#133053" xmlns="http://www.w3.org/2000/svg" xmlns:xlink="http://www.w3.org/1999/xlink" version="1.1" x="0px" y="0px" viewBox="0 0 90 90" enable-background="new 0 0 120 120" xml:space="preserve"><g display="none"><rect x="-1125.652" y="-22.925" display="inline" fill="#000000" width="1328.05" height="538.744"/></g><g><g><path d="M89.792,55.231h0.035l-3.17-10.668c-1.868-6.288-7.754-10.679-14.313-10.679H27.611c-3.324,0-6.469,1.61-8.412,4.308    l-9.805,17.04h0.192c-0.472,1.067-0.738,2.245-0.738,3.485v10.957c0,4.566,3.715,8.28,8.28,8.28h1.899    c-0.192-0.809-0.304-1.648-0.304-2.515c0-0.581,0.059-1.147,0.146-1.704h-1.742c-2.239,0-4.062-1.822-4.062-4.062V58.716    c0-1.42,0.682-2.672,1.722-3.485h69.352c1.676,1.074,2.791,2.948,2.791,5.081v4.107c0,3.481-1.923,6.518-4.759,8.116    c0.256,0.926,0.403,1.896,0.403,2.902c0,0.548-0.054,1.083-0.132,1.61c5.083-1.95,8.707-6.868,8.707-12.628v-4.107    C91.151,58.463,90.652,56.731,89.792,55.231z M34.269,51.013H16.685l5.996-10.435c1.157-1.551,2.993-2.475,4.931-2.475h6.657    V51.013z M38.487,51.013v-12.91h33.856c4.706,0,8.929,3.15,10.269,7.662l1.561,5.248H38.487z"/><path d="M61.008,77.954c-0.191-0.809-0.303-1.648-0.303-2.515c0-0.581,0.059-1.147,0.146-1.704h-20.4    c0.088,0.557,0.146,1.123,0.146,1.704c0,0.867-0.112,1.706-0.304,2.515H61.008z"/><circle cx="29.661" cy="75.438" r="6.717"/><circle cx="71.641" cy="75.438" r="6.717"/></g></g></svg>