<svg fill="#133053" xmlns="http://www.w3.org/2000/svg" xmlns:xlink="http://www.w3.org/1999/xlink" version="1.1" x="0px" y="0px" viewBox="0 0 64 70" style="enable-background:new 0 0 64 64;" xml:space="preserve"><g><path d="M48,23.658V22c0-2.086-1.071-3.924-2.69-5c1.62-1.076,2.69-2.914,2.69-5V7c0-3.309-2.691-6-6-6H7C3.691,1,1,3.691,1,7v5   c0,2.086,1.071,3.924,2.69,5C2.071,18.076,1,19.914,1,22v5c0,2.086,1.071,3.924,2.69,5C2.071,33.076,1,34.914,1,37v5   c0,3.309,2.691,6,6,6h16.658C25.887,56.612,33.701,63,43,63c11.028,0,20-8.972,20-20C63,33.701,56.612,25.887,48,23.658z    M58.761,40.347c-0.538-3.205-2.026-6.087-4.173-8.347h2.627c2.278,2.938,3.666,6.59,3.762,10.564L58.761,40.347z M15.362,31   l-3.6-3h8.876l3.6,3H15.362z M52.292,30c-2.522-1.808-5.584-2.899-8.898-2.98l1.863-1.863c3.917,0.493,7.441,2.245,10.159,4.843   H52.292z M40.347,27.239c-3.205,0.538-6.087,2.026-8.347,4.173v-2.627c2.938-2.278,6.59-3.666,10.564-3.762L40.347,27.239z    M27.163,30.834L23.762,28h6.054C28.842,28.857,27.955,29.805,27.163,30.834z M30,30.584v3.124   c-1.808,2.522-2.899,5.584-2.98,8.898l-1.863-1.863C25.65,36.826,27.402,33.303,30,30.584z M27.239,45.653   c0.538,3.205,2.026,6.087,4.173,8.347h-2.627c-2.278-2.938-3.666-6.59-3.762-10.564L27.239,45.653z M33.708,56   c2.522,1.808,5.584,2.899,8.898,2.98l-1.863,1.863C36.826,60.35,33.303,58.598,30.584,56H33.708z M45.653,58.761   c3.205-0.538,6.087-2.026,8.347-4.173v2.627c-2.938,2.278-6.59,3.666-10.564,3.762L45.653,58.761z M43,57c-7.72,0-14-6.28-14-14   s6.28-14,14-14s14,6.28,14,14S50.72,57,43,57z M43,23c-3.846,0-7.43,1.11-10.483,3H3v-3h6.362l6-5h8.876l-3.6,3H20v2H43h3v0.25   C45.019,23.101,44.022,23,43,23z M32.638,13l3.6,3h-8.876l-3.6-3H32.638z M23.762,21l3.6-3h8.876l-3.6,3H23.762z M20.638,13l3.6,3   h-8.876l-3.6-3H20.638z M45.858,21H35.762l3.6-3H42C43.858,18,45.411,19.28,45.858,21z M39.362,16l-3.6-3h10.096   c-0.447,1.72-2,3-3.858,3H39.362z M45.858,6H43v2h3v3H3V8h34V6h-1.238l3.6-3H42C43.858,3,45.411,4.28,45.858,6z M23.762,6l3.6-3   h8.876l-3.6,3H23.762z M20.638,6h-8.876l3.6-3h8.876L20.638,6z M7,3h5.238l-3.6,3H3.142C3.589,4.28,5.142,3,7,3z M3.142,13h5.496   l3.6,3H7C5.142,16,3.589,14.72,3.142,13z M12.238,18l-3.6,3H3.142c0.447-1.72,2-3,3.858-3H12.238z M3.142,28h5.496l3.6,3H7   C5.142,31,3.589,29.72,3.142,28z M12.238,33l-3.6,3H3.142c0.447-1.72,2-3,3.858-3H12.238z M3.142,43h5.496l3.6,3H7   C5.142,46,3.589,44.72,3.142,43z M15.362,46l-3.6-3H18v-2H3v-3h15v-2h-6.238l3.6-3h10.344c-0.553,0.953-1.025,1.956-1.417,3H20v2   h3.658C23.244,39.601,23,41.271,23,43c0,1.022,0.101,2.019,0.25,3H15.362z M56,55.416v-3.124c1.808-2.522,2.899-5.584,2.98-8.898   l1.863,1.863C60.35,49.174,58.598,52.697,56,55.416z"/><path d="M43,33c-5.514,0-10,4.486-10,10s4.486,10,10,10s10-4.486,10-10S48.514,33,43,33z M43,51c-4.411,0-8-3.589-8-8s3.589-8,8-8   s8,3.589,8,8S47.411,51,43,51z"/><rect x="39" y="6" width="2" height="2"/><rect x="16" y="21" width="2" height="2"/><rect x="12.041" y="21" width="2" height="2"/><path d="M43,54v2c3.204,0,6.282-1.176,8.667-3.311l-1.334-1.49C48.315,53.005,45.711,54,43,54z"/><rect x="20" y="41" width="2" height="2"/><path d="M22.939,53.52l-1.754,0.961c1.769,3.228,4.263,6.104,7.212,8.32l1.201-1.599C26.875,59.155,24.572,56.499,22.939,53.52z"/></g></svg>