<svg fill="#133053" xmlns="http://www.w3.org/2000/svg" xmlns:xlink="http://www.w3.org/1999/xlink" version="1.1" x="0px" y="0px" viewBox="0 0 100 100" enable-background="new 0 0 100 100" xml:space="preserve"><g><path d="M70.62,86.544H29.381v-6.463H46.77v-4.765h-2.455c-1.782,0-3.231-1.45-3.231-3.232V53.889c0-1.782,1.449-3.232,3.231-3.232   h2.455V24.267h-1.851c-2.315,0-4.198-1.884-4.198-4.2v-0.148h-11.34v-6.462h11.34v-0.149c0-2.315,1.883-4.199,4.198-4.199h10.163   c2.315,0,4.199,1.884,4.199,4.199v0.149H70.62v6.462H59.281v0.148c0,2.315-1.884,4.2-4.199,4.2h-1.851v26.389h2.455   c1.782,0,3.231,1.45,3.231,3.232v18.195c0,1.782-1.449,3.232-3.231,3.232h-2.455v4.765H70.62V86.544z M31.004,84.921h37.994v-3.217   H51.609v-8.011h4.077c0.887,0,1.608-0.722,1.608-1.609V53.889c0-0.888-0.722-1.609-1.608-1.609h-4.077V22.644h3.473   c1.421,0,2.576-1.155,2.576-2.577v-1.771h11.34V15.08h-11.34v-1.772c0-1.421-1.155-2.577-2.576-2.577H44.919   c-1.421,0-2.576,1.156-2.576,2.577v1.772H31.004v3.217h11.339v1.771c0,1.421,1.155,2.577,2.576,2.577h3.474v29.635h-4.078   c-0.887,0-1.608,0.722-1.608,1.609v18.195c0,0.888,0.722,1.609,1.608,1.609h4.078v8.011H31.004V84.921z"/></g><g><path d="M21.965,29.477h-4.355c-2.314,0-4.199-1.884-4.199-4.199V8.098c0-2.315,1.885-4.2,4.199-4.2h4.355   c2.315,0,4.199,1.884,4.199,4.2v17.18C26.164,27.593,24.28,29.477,21.965,29.477z M17.609,5.521c-1.421,0-2.576,1.156-2.576,2.577   v17.18c0,1.421,1.155,2.577,2.576,2.577h4.355c1.42,0,2.576-1.156,2.576-2.577V8.098c0-1.421-1.156-2.577-2.576-2.577H17.609z"/></g><g><path d="M82.392,29.477h-4.354c-2.315,0-4.2-1.884-4.2-4.199V8.098c0-2.315,1.885-4.2,4.2-4.2h4.354c2.316,0,4.199,1.884,4.199,4.2   v17.18C86.591,27.593,84.708,29.477,82.392,29.477z M78.037,5.521c-1.421,0-2.577,1.156-2.577,2.577v17.18   c0,1.421,1.156,2.577,2.577,2.577h4.354c1.421,0,2.576-1.156,2.576-2.577V8.098c0-1.421-1.155-2.577-2.576-2.577H78.037z"/></g><g><path d="M21.965,96.102h-4.355c-2.314,0-4.199-1.884-4.199-4.199V74.722c0-2.315,1.885-4.199,4.199-4.199h4.355   c2.315,0,4.199,1.884,4.199,4.199v17.181C26.164,94.218,24.28,96.102,21.965,96.102z M17.609,72.146   c-1.421,0-2.576,1.155-2.576,2.576v17.181c0,1.421,1.155,2.576,2.576,2.576h4.355c1.42,0,2.576-1.155,2.576-2.576V74.722   c0-1.421-1.156-2.576-2.576-2.576H17.609z"/></g><g><path d="M82.392,96.102h-4.354c-2.315,0-4.2-1.884-4.2-4.199V74.722c0-2.315,1.885-4.199,4.2-4.199h4.354   c2.316,0,4.199,1.884,4.199,4.199v17.181C86.591,94.218,84.708,96.102,82.392,96.102z M78.037,72.146   c-1.421,0-2.577,1.155-2.577,2.576v17.181c0,1.421,1.156,2.576,2.577,2.576h4.354c1.421,0,2.576-1.155,2.576-2.576V74.722   c0-1.421-1.155-2.576-2.576-2.576H78.037z"/></g></svg>